<svg width="500" height="500" viewBox="0 0 500 500" fill="none" xmlns="http://www.w3.org/2000/svg">
    <rect width="500" height="500" rx="93" fill="#054232" />
    <path
        d="M246.808 263.603L173.613 226.48C171.952 225.633 170.087 225.7 168.528 226.412L90.3146 263.569C88.1449 264.417 86.5854 266.553 86.5854 269.062V370.43H86.6193C86.6193 372.498 87.7041 374.532 89.6366 375.583L165.341 417.08L165.375 417.114H165.409L165.442 417.148L165.476 417.181L165.51 417.215L165.544 417.249L165.578 417.283L165.612 417.317L165.646 417.351L165.68 417.385H165.714H165.748L165.781 417.419L165.849 417.453H165.883H165.917L165.951 417.487L166.053 417.52L166.087 417.554L166.154 417.588L166.188 417.622L166.222 417.656H166.256H166.29L166.358 417.69L166.392 417.724H166.426H166.46L166.527 417.758L166.595 417.792L166.663 417.826L166.697 417.859H166.731H166.765H166.799L166.866 417.893H166.9H166.934H167.002L167.036 417.927H167.07H167.138H167.171H167.239H167.307H167.341H167.375L167.443 417.961H167.51H167.544H167.578H167.646H167.714H167.782H167.85H167.883H167.917H167.985H168.053H168.087H168.121H168.189H168.256H168.29H168.324H168.392H168.426H168.494H168.561H168.595H168.629H168.697H168.765H168.799H168.833H168.934H169.07H169.104H169.138H169.206H169.273H169.307H169.341H169.409H169.477H169.511H169.579H169.612H169.68H169.748H169.782H169.816H169.884H169.951H169.985H170.019H170.087H170.155H170.223H170.29H170.324H170.358H170.426L170.494 417.927H170.528H170.596H170.63H170.663H170.731H170.765L170.833 417.893H170.901H170.935H170.969L171.036 417.859H171.07H171.104H171.138L171.172 417.826L171.24 417.792L171.308 417.758L171.341 417.724H171.375H171.409L171.443 417.69L171.511 417.656H171.545H171.579L171.613 417.622L171.68 417.588L171.748 417.554L171.782 417.52L171.884 417.487L171.918 417.453H171.952H171.986L172.02 417.419L172.053 417.385H172.087H172.121L172.189 417.351L172.223 417.317L172.257 417.283L172.291 417.249L172.325 417.215L172.359 417.181L172.392 417.148L172.426 417.114H172.46L172.494 417.08L248.198 375.583C250.131 374.532 251.216 372.498 251.216 370.43H251.25V269.062C250.504 266.587 248.978 264.451 246.808 263.603ZM170.935 238.244L187.411 246.584L123.946 279.673L105.266 269.435L170.935 238.244ZM162.73 402.298L98.2478 366.938V278.927L117.911 289.708V309.168L132.489 316.05V297.675L162.73 314.254V402.298ZM168.528 304.117L139.371 288.149L203.447 254.721L232.095 269.265L168.528 304.117Z"
        fill="white" />
    <path
        d="M410.256 264.823L337.06 227.7C335.399 226.852 333.535 226.92 331.975 227.632L253.728 264.789C251.559 265.637 249.999 267.772 249.999 270.281V371.649H250.033C250.033 373.717 251.118 375.752 253.05 376.803L328.788 418.299L328.822 418.333H328.856L328.89 418.367L328.924 418.401L328.958 418.435L328.992 418.469L329.026 418.503L329.059 418.537L329.093 418.57L329.127 418.604H329.161H329.195L329.229 418.638L329.297 418.672H329.331H329.365L329.398 418.706L329.5 418.74L329.534 418.774L329.602 418.808L329.636 418.842L329.67 418.876H329.704H329.738L329.805 418.909L329.839 418.943H329.873H329.907L329.975 418.977L330.043 419.011L330.11 419.045L330.144 419.079H330.178H330.212H330.246L330.314 419.113H330.348H330.382H330.449L330.483 419.147H330.517H330.585H330.619H330.687H330.755H330.789H330.822L330.89 419.181H330.958H330.992H331.026H331.094H331.161H331.229H331.297H331.331H331.365H331.433H331.5H331.534H331.568H331.636H331.704H331.738H331.772H331.839H331.873H331.941H332.009H332.043H332.077H332.145H332.212H332.246H332.28H332.382H332.518H332.551H332.585H332.653H332.721H332.755H332.789H332.857H332.924H332.958H333.026H333.06H333.128H333.196H333.229H333.263H333.331H333.399H333.433H333.467H333.535H333.602H333.67H333.738H333.772H333.84L333.908 419.147H333.941H334.009H334.043H334.077H334.145H334.179L334.247 419.113H334.314H334.348H334.382L334.45 419.079H334.484H334.518H334.552L334.586 419.045L334.653 419.011L334.721 418.977L334.755 418.943H334.789H334.823L334.857 418.909L334.925 418.876H334.959H334.992L335.026 418.842L335.094 418.808L335.162 418.774L335.196 418.74L335.298 418.706L335.331 418.672H335.365H335.399L335.433 418.638L335.467 418.604H335.501H335.535L335.603 418.57L335.637 418.537L335.67 418.503L335.704 418.469L335.738 418.435L335.772 418.401L335.806 418.367L335.84 418.333H335.874L335.908 418.299L410.9 376.803C412.832 375.752 413.917 373.717 413.917 371.649H413.951V270.281C413.951 267.806 412.426 265.67 410.256 264.823ZM334.382 239.464L350.859 247.804L287.393 280.893L268.713 270.654L334.382 239.464ZM326.144 403.518L261.695 368.157V280.147L281.359 290.928V310.388L295.937 317.27V298.895L326.178 315.473V403.518H326.144ZM331.975 305.336L302.819 289.368L366.895 255.94L395.542 270.485L331.975 305.336Z"
        fill="white" />
    <path
        d="M331.498 118.23L258.302 81.1065C256.641 80.259 254.776 80.3268 253.217 81.0387L175.004 118.23C172.834 119.077 171.275 121.213 171.275 123.722V225.09H171.309C171.309 227.158 172.393 229.192 174.326 230.243L250.03 271.74L250.064 271.774H250.098L250.132 271.808L250.166 271.842L250.2 271.876L250.233 271.909L250.267 271.943L250.301 271.977L250.335 272.011L250.369 272.045H250.403H250.437L250.471 272.079L250.539 272.113H250.572H250.606L250.64 272.147L250.742 272.181L250.776 272.215L250.844 272.248L250.878 272.282L250.911 272.316H250.945H250.979L251.047 272.35L251.081 272.384H251.115H251.149L251.217 272.418L251.284 272.452L251.352 272.486L251.386 272.52H251.42H251.454H251.488L251.556 272.554H251.589H251.623H251.691L251.725 272.588H251.759H251.827H251.861H251.929H251.996H252.03H252.064L252.132 272.621H252.2H252.234H252.268H252.335H252.403H252.471H252.539H252.573H252.607H252.674H252.742H252.776H252.81H252.878H252.946H252.979H253.013H253.081H253.115H253.183H253.251H253.285H253.319H253.386H253.454H253.488H253.522H253.624H253.759H253.793H253.827H253.895H253.963H253.997H254.03H254.098H254.166H254.2H254.268H254.302H254.37H254.437H254.471H254.505H254.573H254.641H254.675H254.709H254.776H254.844H254.912H254.98H255.014H255.048H255.115L255.183 272.588H255.217H255.285H255.319H255.353H255.42H255.454L255.522 272.554H255.59H255.624H255.658L255.726 272.52H255.759H255.793H255.827L255.861 272.486L255.929 272.452L255.997 272.418L256.031 272.384H256.065H256.099L256.132 272.35L256.2 272.316H256.234H256.268L256.302 272.282L256.37 272.248L256.438 272.215L256.471 272.181L256.573 272.147L256.607 272.113H256.641H256.675L256.709 272.079L256.743 272.045H256.777H256.81L256.878 272.011L256.912 271.977L256.946 271.943L256.98 271.909L257.014 271.876L257.048 271.842L257.082 271.808L257.116 271.774H257.15L257.183 271.74L332.176 230.209C334.108 229.158 335.193 227.124 335.193 225.056H335.227V123.688C335.227 121.213 333.667 119.077 331.498 118.23ZM259.794 94.9048L276.27 103.245L212.805 136.334L194.125 126.095L259.794 94.9048ZM247.521 258.959L183.039 223.598V135.588L202.702 146.369V165.863L217.28 172.745V154.37L247.521 170.948V258.959ZM253.251 158.777L224.095 142.809L288.17 109.381L316.818 123.925L253.251 158.777Z"
        fill="white" />
</svg>